<?xml version="1.0" encoding="UTF-8" standalone="no"?>
<!-- Created with Inkscape (http://www.inkscape.org/) -->

<svg
   xmlns:dc="http://purl.org/dc/elements/1.1/"
   xmlns:cc="http://creativecommons.org/ns#"
   xmlns:rdf="http://www.w3.org/1999/02/22-rdf-syntax-ns#"
   xmlns:svg="http://www.w3.org/2000/svg"
   xmlns="http://www.w3.org/2000/svg"
   xmlns:sodipodi="http://sodipodi.sourceforge.net/DTD/sodipodi-0.dtd"
   xmlns:inkscape="http://www.inkscape.org/namespaces/inkscape"
   width="192.97638"
   height="117.45142"
   viewBox="0 0 51.058332 31.075689"
   version="1.1"
   id="svg8"
   inkscape:version="0.92.0 r"
   sodipodi:docname="hands-sensor-locations.svg"
   inkscape:export-filename="/home/paul/uni/bachelor/assets/images/hands-sensor-locations.png"
   inkscape:export-xdpi="299.97083"
   inkscape:export-ydpi="299.97083">
  <defs
     id="defs2" />
  <sodipodi:namedview
     id="base"
     pagecolor="#ffffff"
     bordercolor="#666666"
     borderopacity="1.0"
     inkscape:pageopacity="0.0"
     inkscape:pageshadow="2"
     inkscape:zoom="2.6234179"
     inkscape:cx="29.357231"
     inkscape:cy="98.218229"
     inkscape:document-units="mm"
     inkscape:current-layer="layer1"
     showgrid="false"
     fit-margin-top="2"
     fit-margin-left="2"
     fit-margin-right="2"
     fit-margin-bottom="2"
     units="px"
     inkscape:window-width="1676"
     inkscape:window-height="982"
     inkscape:window-x="0"
     inkscape:window-y="42"
     inkscape:window-maximized="0">
    <inkscape:grid
       type="xygrid"
       id="grid4499"
       originx="-1.7076574"
       originy="-196.89569" />
  </sodipodi:namedview>
  <metadata
     id="metadata5">
    <rdf:RDF>
      <cc:Work
         rdf:about="">
        <dc:format>image/svg+xml</dc:format>
        <dc:type
           rdf:resource="http://purl.org/dc/dcmitype/StillImage" />
        <dc:title></dc:title>
      </cc:Work>
    </rdf:RDF>
  </metadata>
  <g
     inkscape:label="Layer 1"
     inkscape:groupmode="layer"
     id="layer1"
     transform="translate(-1.7076576,-69.028622)">
    <g
       id="g4617"
       transform="matrix(0.31191541,0,0,0.31191541,1.5391243,68.516123)">
      <path
         sodipodi:nodetypes="cccccccccccccccccccczccccccczcccc"
         inkscape:connector-curvature="0"
         id="path4496"
         d="m 122.30848,99.551353 c -0.191,-5.598017 2.00367,-18.439917 -1.14711,-23.625184 -4.03568,-6.696704 -10.52456,-12.176081 -13.39497,-19.420798 -2.73531,-3.585198 -6.21182,-6.593681 -9.502668,-9.676247 -1.532431,-3.155758 3.534418,-4.692644 5.829458,-3.659814 4.36156,0.973802 5.83488,5.841189 9.54775,7.889512 2.7556,3.061508 4.81836,1.16036 6.58398,-2.451359 1.28247,-3.134209 1.83004,-6.559006 2.3265,-9.89554 0.32929,-9.3587 -0.51182,-17.306552 -0.73507,-25.659594 -0.10013,-2.905268 0.96866,-8.4713227 4.70421,-6.5591029 1.96966,2.2674298 2.20805,5.1266499 2.68573,7.9248329 0.17511,4.094464 0.8328,8.258644 0.72313,12.196753 0.13687,3.963806 0.10152,6.732465 1.69413,9.658412 1.1464,-1.99673 1.6294,-6.74763 2.52499,-9.539623 0.97004,-6.631567 2.47623,-13.203759 4.28443,-19.6594812 0.63428,-2.3045288 3.02533,-4.2394486 5.37144,-2.6857205 3.49349,2.2079318 0.62779,6.8217677 0.33757,9.9908837 -1.58207,6.607011 -2.44933,13.383271 -2.88846,19.964235 -0.55757,1.926006 -0.0658,3.071389 -0.0658,3.071389 0,0 1.21514,-2.271578 1.78125,-4.028477 2.10238,-5.05989 5.18053,-11.874013 6.28233,-16.574043 1.1018,-4.70003 3.22912,-8.0416831 6.81626,-4.772064 1.84539,2.346284 -0.26788,5.471861 -0.63678,8.048644 -1.40727,4.190432 -2.95446,8.55282 -4.25871,12.757173 -1.63048,3.220903 -3.16472,7.709248 -3.28654,10.02666 2.54809,-0.322645 2.086,-2.444816 3.58969,-4.395602 1.29071,-3.709057 3.13741,-6.949004 5.01632,-10.735741 0.28148,-1.89774 2.81184,-3.881341 4.85649,-1.889692 2.68398,2.647483 -3.29847,14.299364 -4.79578,18.723792 -1.4973,4.424428 -1.64624,8.080025 -3.20271,11.915615 -1.10997,4.235466 -1.63832,8.676833 -3.97488,12.461753 -1.19528,3.159577 -3.15337,6.288214 -3.28067,9.722294 0.58427,5.572247 -0.23935,15.284367 0.027,20.876134"
         style="fill:none;stroke:#000000;stroke-width:1;stroke-miterlimit:4;stroke-dasharray:none;stroke-opacity:1" />
      <text
         id="text4518"
         y="67.114899"
         x="134.08829"
         style="font-style:normal;font-variant:normal;font-weight:bold;font-stretch:normal;font-size:4.23333311px;line-height:6.61458302px;font-family:'Droid Sans';-inkscape-font-specification:'Droid Sans Bold';text-align:center;letter-spacing:0px;word-spacing:0px;text-anchor:middle;fill:#000000;fill-opacity:1;stroke:none;stroke-width:0.26458332px;stroke-linecap:butt;stroke-linejoin:miter;stroke-opacity:1"
         xml:space="preserve"><tspan
           style="font-style:normal;font-variant:normal;font-weight:bold;font-stretch:normal;font-size:4.23333311px;font-family:'Droid Sans';-inkscape-font-specification:'Droid Sans Bold';text-align:center;text-anchor:middle;stroke-width:0.26458332px"
           y="67.114899"
           x="134.08829"
           id="tspan4516"
           sodipodi:role="line">0</tspan></text>
      <text
         xml:space="preserve"
         style="font-style:normal;font-variant:normal;font-weight:bold;font-stretch:normal;font-size:4.23333311px;line-height:6.61458302px;font-family:'Droid Sans';-inkscape-font-specification:'Droid Sans Bold';text-align:center;letter-spacing:0px;word-spacing:0px;text-anchor:middle;fill:#000000;fill-opacity:1;stroke:none;stroke-width:0.26458332px;stroke-linecap:butt;stroke-linejoin:miter;stroke-opacity:1"
         x="103.54403"
         y="49.123226"
         id="text4522"><tspan
           sodipodi:role="line"
           id="tspan4520"
           x="103.54403"
           y="49.123226"
           style="font-style:normal;font-variant:normal;font-weight:bold;font-stretch:normal;font-size:4.23333311px;font-family:'Droid Sans';-inkscape-font-specification:'Droid Sans Bold';text-align:center;text-anchor:middle;stroke-width:0.26458332px">1</tspan></text>
      <text
         id="text4526"
         y="13.971436"
         x="125.25797"
         style="font-style:normal;font-variant:normal;font-weight:bold;font-stretch:normal;font-size:4.23333311px;line-height:6.61458302px;font-family:'Droid Sans';-inkscape-font-specification:'Droid Sans Bold';text-align:center;letter-spacing:0px;word-spacing:0px;text-anchor:middle;fill:#000000;fill-opacity:1;stroke:none;stroke-width:0.26458332px;stroke-linecap:butt;stroke-linejoin:miter;stroke-opacity:1"
         xml:space="preserve"><tspan
           style="font-style:normal;font-variant:normal;font-weight:bold;font-stretch:normal;font-size:4.23333311px;font-family:'Droid Sans';-inkscape-font-specification:'Droid Sans Bold';text-align:center;text-anchor:middle;stroke-width:0.26458332px"
           y="13.971436"
           x="125.25797"
           id="tspan4524"
           sodipodi:role="line">2</tspan></text>
      <text
         xml:space="preserve"
         style="font-style:normal;font-variant:normal;font-weight:bold;font-stretch:normal;font-size:4.23333311px;line-height:6.61458302px;font-family:'Droid Sans';-inkscape-font-specification:'Droid Sans Bold';text-align:center;letter-spacing:0px;word-spacing:0px;text-anchor:middle;fill:#000000;fill-opacity:1;stroke:none;stroke-width:0.26458332px;stroke-linecap:butt;stroke-linejoin:miter;stroke-opacity:1"
         x="141.18051"
         y="12.686316"
         id="text4530"><tspan
           sodipodi:role="line"
           id="tspan4528"
           x="141.18051"
           y="12.686316"
           style="font-style:normal;font-variant:normal;font-weight:bold;font-stretch:normal;font-size:4.23333311px;font-family:'Droid Sans';-inkscape-font-specification:'Droid Sans Bold';text-align:center;text-anchor:middle;stroke-width:0.26458332px">3</tspan></text>
      <text
         id="text4534"
         y="19.754477"
         x="152.41563"
         style="font-style:normal;font-variant:normal;font-weight:bold;font-stretch:normal;font-size:4.23333311px;line-height:6.61458302px;font-family:'Droid Sans';-inkscape-font-specification:'Droid Sans Bold';text-align:center;letter-spacing:0px;word-spacing:0px;text-anchor:middle;fill:#000000;fill-opacity:1;stroke:none;stroke-width:0.26458332px;stroke-linecap:butt;stroke-linejoin:miter;stroke-opacity:1"
         xml:space="preserve"><tspan
           style="font-style:normal;font-variant:normal;font-weight:bold;font-stretch:normal;font-size:4.23333311px;font-family:'Droid Sans';-inkscape-font-specification:'Droid Sans Bold';text-align:center;text-anchor:middle;stroke-width:0.26458332px"
           y="19.754477"
           x="152.41563"
           id="tspan4532"
           sodipodi:role="line">4</tspan></text>
      <text
         xml:space="preserve"
         style="font-style:normal;font-variant:normal;font-weight:bold;font-stretch:normal;font-size:4.23333311px;line-height:6.61458302px;font-family:'Droid Sans';-inkscape-font-specification:'Droid Sans Bold';text-align:center;letter-spacing:0px;word-spacing:0px;text-anchor:middle;fill:#000000;fill-opacity:1;stroke:none;stroke-width:0.26458332px;stroke-linecap:butt;stroke-linejoin:miter;stroke-opacity:1"
         x="158.97134"
         y="32.114296"
         id="text4538"><tspan
           sodipodi:role="line"
           id="tspan4536"
           x="158.97134"
           y="32.114296"
           style="font-style:normal;font-variant:normal;font-weight:bold;font-stretch:normal;font-size:4.23333311px;font-family:'Droid Sans';-inkscape-font-specification:'Droid Sans Bold';text-align:center;text-anchor:middle;stroke-width:0.26458332px">5</tspan></text>
      <path
         style="fill:none;stroke:#000000;stroke-width:1;stroke-miterlimit:4;stroke-dasharray:none;stroke-opacity:1"
         d="m 42.465019,99.551353 c 0.190997,-5.598017 -2.00367,-18.439913 1.147107,-23.62518 4.03568,-6.696704 10.524554,-12.176081 13.394964,-19.420798 2.735306,-3.585198 6.211816,-6.593681 9.502676,-9.676247 1.53244,-3.155758 -3.53443,-4.692644 -5.82947,-3.659814 -4.361556,0.973802 -5.834876,5.841189 -9.547743,7.889512 -2.7556,3.061508 -4.818357,1.16036 -6.583977,-2.451359 -1.28247,-3.134209 -1.83004,-6.559006 -2.326497,-9.89554 -0.32929,-9.3587 0.511817,-17.306552 0.735067,-25.659597 0.10013,-2.90527 -0.968657,-8.4713197 -4.704207,-6.5590999 -1.969657,2.2674298 -2.208047,5.1266499 -2.685727,7.9248299 -0.17511,4.094467 -0.8328,8.258647 -0.72313,12.196756 -0.13687,3.963806 -0.10152,6.732465 -1.69413,9.658412 -1.1464,-1.99673 -1.629397,-6.74763 -2.524987,-9.539623 C 29.654925,20.102038 28.148735,13.52985 26.340538,7.0741198 25.706258,4.76959 23.315208,2.8346702 20.969101,4.3884003 c -3.49349,2.2079298 -0.62779,6.8217697 -0.33757,9.9908897 1.582067,6.607008 2.449327,13.383268 2.888457,19.964232 0.55757,1.926006 0.0658,3.071389 0.0658,3.071389 0,0 -1.21514,-2.271578 -1.78125,-4.028477 -2.102377,-5.05989 -5.180527,-11.874013 -6.282324,-16.574044 -1.1018,-4.70003 -3.22912,-8.0416801 -6.8162571,-4.77206 -1.8453891,2.34628 0.2678797,5.47186 0.6367797,8.048641 1.4072694,4.190432 2.9544574,8.55282 4.2587074,12.757173 1.63048,3.220903 3.164717,7.709248 3.286537,10.02666 -2.548087,-0.322645 -2.085997,-2.444816 -3.589687,-4.395602 -1.29071,-3.709057 -3.137408,-6.949004 -5.0163168,-10.735741 -0.28148,-1.89774 -2.8118355,-3.881341 -4.8564855,-1.889692 -2.68397997,2.647483 3.2984664,14.299364 4.7957755,18.723792 1.4972991,4.424428 1.6462391,8.080025 3.2027068,11.915615 1.10997,4.235466 1.63832,8.676833 3.97488,12.461753 1.195277,3.159577 3.153367,6.288214 3.280667,9.722294 -0.58427,5.572247 0.23935,15.284363 -0.027,20.87613"
         id="path4544"
         inkscape:connector-curvature="0"
         sodipodi:nodetypes="cccccccccccccccccccczccccccczcccc" />
      <text
         xml:space="preserve"
         style="font-style:normal;font-variant:normal;font-weight:bold;font-stretch:normal;font-size:4.23333311px;line-height:6.61458302px;font-family:'Droid Sans';-inkscape-font-specification:'Droid Sans Bold';text-align:center;letter-spacing:0px;word-spacing:0px;text-anchor:middle;fill:#000000;fill-opacity:1;stroke:none;stroke-width:0.26458332px;stroke-linecap:butt;stroke-linejoin:miter;stroke-opacity:1"
         x="30.685261"
         y="67.114906"
         id="text4548"><tspan
           sodipodi:role="line"
           id="tspan4546"
           x="30.685261"
           y="67.114906"
           style="font-style:normal;font-variant:normal;font-weight:bold;font-stretch:normal;font-size:4.23333311px;font-family:'Droid Sans';-inkscape-font-specification:'Droid Sans Bold';text-align:center;text-anchor:middle;stroke-width:0.26458332px">6</tspan></text>
      <text
         id="text4552"
         y="49.123226"
         x="61.833046"
         style="font-style:normal;font-variant:normal;font-weight:bold;font-stretch:normal;font-size:4.23333311px;line-height:6.61458302px;font-family:'Droid Sans';-inkscape-font-specification:'Droid Sans Bold';text-align:center;letter-spacing:0px;word-spacing:0px;text-anchor:middle;fill:#000000;fill-opacity:1;stroke:none;stroke-width:0.26458332px;stroke-linecap:butt;stroke-linejoin:miter;stroke-opacity:1"
         xml:space="preserve"><tspan
           style="font-style:normal;font-variant:normal;font-weight:bold;font-stretch:normal;font-size:4.23333311px;font-family:'Droid Sans';-inkscape-font-specification:'Droid Sans Bold';text-align:center;text-anchor:middle;stroke-width:0.26458332px"
           y="49.123226"
           x="61.833046"
           id="tspan4550"
           sodipodi:role="line">7</tspan></text>
      <text
         xml:space="preserve"
         style="font-style:normal;font-variant:normal;font-weight:bold;font-stretch:normal;font-size:4.23333311px;line-height:6.61458302px;font-family:'Droid Sans';-inkscape-font-specification:'Droid Sans Bold';text-align:center;letter-spacing:0px;word-spacing:0px;text-anchor:middle;fill:#000000;fill-opacity:1;stroke:none;stroke-width:0.26458332px;stroke-linecap:butt;stroke-linejoin:miter;stroke-opacity:1"
         x="39.668686"
         y="13.971437"
         id="text4556"><tspan
           sodipodi:role="line"
           id="tspan4554"
           x="39.668686"
           y="13.971437"
           style="font-style:normal;font-variant:normal;font-weight:bold;font-stretch:normal;font-size:4.23333311px;font-family:'Droid Sans';-inkscape-font-specification:'Droid Sans Bold';text-align:center;text-anchor:middle;stroke-width:0.26458332px">8</tspan></text>
      <text
         id="text4560"
         y="12.875307"
         x="23.842699"
         style="font-style:normal;font-variant:normal;font-weight:bold;font-stretch:normal;font-size:4.23333311px;line-height:6.61458302px;font-family:'Droid Sans';-inkscape-font-specification:'Droid Sans Bold';text-align:center;letter-spacing:0px;word-spacing:0px;text-anchor:middle;fill:#000000;fill-opacity:1;stroke:none;stroke-width:0.26458332px;stroke-linecap:butt;stroke-linejoin:miter;stroke-opacity:1"
         xml:space="preserve"><tspan
           style="font-style:normal;font-variant:normal;font-weight:bold;font-stretch:normal;font-size:4.23333311px;font-family:'Droid Sans';-inkscape-font-specification:'Droid Sans Bold';text-align:center;text-anchor:middle;stroke-width:0.26458332px"
           y="12.875307"
           x="23.842699"
           id="tspan4558"
           sodipodi:role="line">9</tspan></text>
      <text
         xml:space="preserve"
         style="font-style:normal;font-variant:normal;font-weight:bold;font-stretch:normal;font-size:4.23333311px;line-height:6.61458302px;font-family:'Droid Sans';-inkscape-font-specification:'Droid Sans Bold';text-align:center;letter-spacing:0px;word-spacing:0px;text-anchor:middle;fill:#000000;fill-opacity:1;stroke:none;stroke-width:0.26458332px;stroke-linecap:butt;stroke-linejoin:miter;stroke-opacity:1"
         x="12.276451"
         y="20.321444"
         id="text4564"><tspan
           sodipodi:role="line"
           id="tspan4562"
           x="12.276451"
           y="20.321444"
           style="font-style:normal;font-variant:normal;font-weight:bold;font-stretch:normal;font-size:4.23333311px;font-family:'Droid Sans';-inkscape-font-specification:'Droid Sans Bold';text-align:center;text-anchor:middle;stroke-width:0.26458332px">10</tspan></text>
      <text
         id="text4568"
         y="33.248226"
         x="6.369215"
         style="font-style:normal;font-variant:normal;font-weight:bold;font-stretch:normal;font-size:4.23333311px;line-height:6.61458302px;font-family:'Droid Sans';-inkscape-font-specification:'Droid Sans Bold';text-align:center;letter-spacing:0px;word-spacing:0px;text-anchor:middle;fill:#000000;fill-opacity:1;stroke:none;stroke-width:0.26458332px;stroke-linecap:butt;stroke-linejoin:miter;stroke-opacity:1"
         xml:space="preserve"><tspan
           style="font-style:normal;font-variant:normal;font-weight:bold;font-stretch:normal;font-size:4.23333311px;font-family:'Droid Sans';-inkscape-font-specification:'Droid Sans Bold';text-align:center;text-anchor:middle;stroke-width:0.26458332px"
           y="33.248226"
           x="6.369215"
           id="tspan4566"
           sodipodi:role="line">11</tspan></text>
    </g>
  </g>
</svg>
